Format : Matroska
File size : 576 MiB
Duration : 1h 29mn
Overall bit rate : 902 Kbps
Encoded date : UTC 2010-11-17 19:08:37
Writing application : mkvmerge v2.4.0 ('Fumbling Towards Ecstasy') built on Oct 11 2008 20:13:15
Writing library : libebml v0.7.7 + libmatroska v0.8.1

Video
ID : 1
Format : AVC
Format/Info : Advanced Video Codec
Format profile : Baseline@L2.1
Format settings, CABAC : No
Format settings, ReFrames : 1 frame
Muxing mode : Container profile=Unknown@2.1
Codec ID : V_MPEG4/ISO/AVC
Duration : 1h 29mn
Bit rate : 756 Kbps
Nominal bit rate : 768 Kbps
Width : 640 pixels
Height : 360 pixels
Display aspect ratio : 16:9
Frame rate : 25.000 fps
Resolution : 24 bits
Colorimetry : 4:2:0
Scan type : Progressive
Bits/(Pixel*Frame) : 0.131
Stream size : 483 MiB (84%)
Writing library : x264 core 67 r1163+17 7d945df

Audio
ID : 2
Format : AC-3
Format/Info : Audio Coding 3
Codec ID : A_AC3
Duration : 1h 29mn
Bit rate mode : Constant
Bit rate : 128 Kbps
Channel(s) : 6 channels
Channel positions : Front: L C R, Surround: L R, LFE
Sampling rate : 44.1 KHz
Stream size : 81.8 MiB (14%)

The film begins just before Shrek (Mike Myers) rescues Princess Fiona (Cameron Diaz) in the first film. Desperate to lift their daughter's curse, King Harold (John Cleese) and Queen Lillian (Julie Andrews) meet with con artist Rumpelstiltskin (Walt Dohrn), who requests becoming king of Far Far Away in exchange. Just before the deal is contracted, the king and queen learn that Fiona has already been rescued. In the present, a disgruntled Rumpelstiltskin wishes Shrek was never born and seeks revenge.
 
http://www.imdb.com/title/tt0892791/

screens
 
http://img87.imageshack.us/img87/73/shrek4mkvvicemkvsnapsho.jpg 
http://img819.imageshack.us/img819/73/shrek4mkvvicemkvsnapsho.jpg 
http://img94.imageshack.us/img94/73/shrek4mkvvicemkvsnapsho.jpg 
http://img576.imageshack.us/img576/73/shrek4mkvvicemkvsnapsho.jpg